<svg xmlns="http://www.w3.org/2000/svg" width="900" height="600" viewBox="0 0 900 600" role="img" aria-labelledby="title desc">
  <title id="title">Marketing Consultation Placeholder</title>
  <desc id="desc">Illustrated placeholder for marketing consultation section.</desc>
  <defs>
    <linearGradient id="bg" x1="0" y1="0" x2="1" y2="1">
      <stop offset="0%" stop-color="#f5f3ff"/>
      <stop offset="100%" stop-color="#eef2ff"/>
    </linearGradient>
    <linearGradient id="accent" x1="0" y1="0" x2="1" y2="1">
      <stop offset="0%" stop-color="#7c3aed"/>
      <stop offset="100%" stop-color="#4f46e5"/>
    </linearGradient>
  </defs>
  <rect width="900" height="600" fill="url(#bg)"/>
  <circle cx="150" cy="120" r="80" fill="#ddd6fe" opacity="0.7"/>
  <circle cx="735" cy="150" r="92" fill="#c7d2fe" opacity="0.6"/>
  <rect x="130" y="160" width="280" height="280" rx="28" fill="#ffffff" stroke="#d1d5db"/>
  <rect x="450" y="180" width="320" height="210" rx="28" fill="#ffffff" stroke="#d1d5db"/>
  <circle cx="270" cy="235" r="58" fill="url(#accent)"/>
  <rect x="210" y="310" width="120" height="20" rx="10" fill="#e5e7eb"/>
  <rect x="190" y="345" width="160" height="16" rx="8" fill="#c7d2fe"/>
  <rect x="190" y="372" width="142" height="16" rx="8" fill="#ddd6fe"/>
  <rect x="500" y="220" width="220" height="20" rx="10" fill="#e5e7eb"/>
  <rect x="500" y="258" width="180" height="14" rx="7" fill="#c7d2fe"/>
  <rect x="500" y="284" width="200" height="14" rx="7" fill="#ddd6fe"/>
  <rect x="500" y="316" width="145" height="14" rx="7" fill="#e5e7eb"/>
  <rect x="500" y="352" width="130" height="32" rx="16" fill="url(#accent)"/>
  <text x="450" y="500" text-anchor="middle" font-family="Plus Jakarta Sans, Arial, sans-serif" font-size="36" font-weight="800" fill="#111827">Marketing Consultation</text>
  <text x="450" y="536" text-anchor="middle" font-family="Plus Jakarta Sans, Arial, sans-serif" font-size="18" fill="#6b7280">Birdlin visual placeholder</text>
</svg>
