<svg xmlns="http://www.w3.org/2000/svg" width="900" height="540" viewBox="0 0 900 540" role="img" aria-labelledby="title desc">
  <title id="title">Team Collaboration Placeholder</title>
  <desc id="desc">Illustrated placeholder image for team collaboration.</desc>
  <defs>
    <linearGradient id="bg" x1="0" y1="0" x2="1" y2="1">
      <stop offset="0%" stop-color="#eef2ff"/>
      <stop offset="100%" stop-color="#f5f3ff"/>
    </linearGradient>
    <linearGradient id="card" x1="0" y1="0" x2="1" y2="1">
      <stop offset="0%" stop-color="#4f46e5"/>
      <stop offset="100%" stop-color="#7c3aed"/>
    </linearGradient>
  </defs>
  <rect width="900" height="540" fill="url(#bg)"/>
  <circle cx="120" cy="110" r="70" fill="#c7d2fe" opacity="0.55"/>
  <circle cx="770" cy="90" r="90" fill="#ddd6fe" opacity="0.55"/>
  <circle cx="790" cy="420" r="100" fill="#e0e7ff" opacity="0.8"/>
  <rect x="110" y="120" width="360" height="220" rx="28" fill="#ffffff" stroke="#d1d5db"/>
  <rect x="430" y="170" width="300" height="180" rx="24" fill="#ffffff" stroke="#d1d5db"/>
  <rect x="160" y="190" width="90" height="90" rx="20" fill="url(#card)"/>
  <rect x="275" y="190" width="140" height="18" rx="9" fill="#e5e7eb"/>
  <rect x="275" y="220" width="110" height="14" rx="7" fill="#c7d2fe"/>
  <rect x="275" y="248" width="120" height="14" rx="7" fill="#ddd6fe"/>
  <rect x="275" y="280" width="85" height="14" rx="7" fill="#e5e7eb"/>
  <rect x="470" y="210" width="110" height="110" rx="18" fill="#eef2ff"/>
  <rect x="600" y="225" width="28" height="95" rx="14" fill="#4f46e5"/>
  <rect x="640" y="195" width="28" height="125" rx="14" fill="#7c3aed"/>
  <rect x="680" y="245" width="28" height="75" rx="14" fill="#a5b4fc"/>
  <text x="450" y="430" text-anchor="middle" font-family="Plus Jakarta Sans, Arial, sans-serif" font-size="36" font-weight="800" fill="#111827">Team Collaboration</text>
  <text x="450" y="466" text-anchor="middle" font-family="Plus Jakarta Sans, Arial, sans-serif" font-size="18" fill="#6b7280">Birdlin visual placeholder</text>
</svg>
